<svg xmlns="http://www.w3.org/2000/svg" width="1024" height="1024" viewBox="0 0 1024 1024" xmlns:c2pa="http://c2pa.org/manifest"><metadata><c2pa:manifest>AAAk4Wp1bWIAAAAeanVtZGMycGEAEQAQgAAAqgA4m3EDYzJwYQAAAA6CanVtYgAAAEdqdW1kYzJtYQARABCAAACqADibcQN1cm46YzJwYToyNjgxOTU1OS1kMWUwLTRhZjctOWRmMC0zMzZkMjBjMTlhNzcAAAADs2p1bWIAAAApanVtZGMyYXMAEQAQgAAAqgA4m3EDYzJwYS5hc3NlcnRpb25zAAAAAMlqdW1iAAAARGp1bWRjYm9yABEAEIAAAKoAOJtxE2MycGEuaW5ncmVkaWVudC52MwAAAAAYYzJzaOGJQ+I5IcxM0T4tsbCx+ocAAAB9Y2JvcqRscmVsYXRpb25zaGlwaHBhcmVudE9maGRjOnRpdGxlZnNvdXJjZWlkYzpmb3JtYXRqaW1hZ2Uvd2VicGppbnN0YW5jZUlEeCx4bXA6aWlkOjA5Y2U4OTgxLWIyZDUtNGRhOC05YmE4LTZiMDFiNjU0MzJjZQAAAfVqdW1iAAAAQWp1bWRjYm9yABEAEIAAAKoAOJtxE2MycGEuYWN0aW9ucy52MgAAAAAYYzJzaCPfkD6Sxlx/kCFZO3rUD4cAAAGsY2JvcqFnYWN0aW9uc4KiZmFjdGlvbmtjMnBhLm9wZW5lZGpwYXJhbWV0ZXJzoWtpbmdyZWRpZW50c4GiY3VybHgtc2VsZiNqdW1iZj1jMnBhLmFzc2VydGlvbnMvYzJwYS5pbmdyZWRpZW50LnYzZGhhc2hYIOdD/d8UVY+NtoAdwG0BbFC6ZeO4GACCeR5WoJAjdV3zpGZhY3Rpb25rYzJwYS5lZGl0ZWRqcGFyYW1ldGVyc6FraW5ncmVkaWVudHOBomN1cmx4LXNlbGYjanVtYmY9YzJwYS5hc3NlcnRpb25zL2MycGEuaW5ncmVkaWVudC52M2RoYXNoWCDnQ/3fFFWPjbaAHcBtAWxQumXjuBgAgnkeVqCQI3Vd83FkaWdpdGFsU291cmNlVHlwZXhTaHR0cDovL2N2LmlwdGMub3JnL25ld3Njb2Rlcy9kaWdpdGFsc291cmNldHlwZS9jb21wb3NpdGVXaXRoVHJhaW5lZEFsZ29yaXRobWljTWVkaWFrZGVzY3JpcHRpb252Q3JlYXRlZCBieSBSZWNyYWZ0IEFJLgAAAMRqdW1iAAAAQGp1bWRjYm9yABEAEIAAAKoAOJtxE2MycGEuaGFzaC5kYXRhAAAAABhjMnNoINCMyWEs/nL+AS1p6XMP/gAAAHxjYm9ypWpleGNsdXNpb25zgaJlc3RhcnQY22ZsZW5ndGgZE4xkbmFtZW5qdW1iZiBtYW5pZmVzdGNhbGdmc2hhMjU2ZGhhc2hYIBX8u2fP7f0EwHwpb20OSWY8G0eYxi46kmmtKWm/eS+1Y3BhZEkAAAAAAAAAAAAAAAKkanVtYgAAACdqdW1kYzJjbAARABCAAACqADibcQNjMnBhLmNsYWltLnYyAAAAAnVjYm9yp2ppbnN0YW5jZUlEeCx4bXA6aWlkOmMzY2ZlYzBkLTgzOTQtNGRiMC1iOWVkLTgyM2E0ZmQyMTE1OHRjbGFpbV9nZW5lcmF0b3JfaW5mb6NkbmFtZWpyZWNyYWZ0LmFpZ3ZlcnNpb254KDgxY2U4MmUyYzVjM2NiZmJlOGM2ZmJlMTc5ZDVmOGQ5MWM0MDljZTF3b3JnLmNvbnRlbnRhdXRoLmMycGFfcnNmMC45MC43aXNpZ25hdHVyZXhNc2VsZiNqdW1iZj0vYzJwYS91cm46YzJwYToyNjgxOTU1OS1kMWUwLTRhZjctOWRmMC0zMzZkMjBjMTlhNzcvYzJwYS5zaWduYXR1cmVyY3JlYXRlZF9hc3NlcnRpb25zgqJjdXJseCpzZWxmI2p1bWJmPWMycGEuYXNzZXJ0aW9ucy9jMnBhLmFjdGlvbnMudjJkaGFzaFggbF1916fkUh+uXJwF138ny61nTu7qa8J9zH5eUgNbueGiY3VybHgpc2VsZiNqdW1iZj1jMnBhLmFzc2VydGlvbnMvYzJwYS5oYXNoLmRhdGFkaGFzaFggHKdQ5luULNUMli8EIi5xObXip7N91To65R2C2VET/URzZ2F0aGVyZWRfYXNzZXJ0aW9uc4GiY3VybHgtc2VsZiNqdW1iZj1jMnBhLmFzc2VydGlvbnMvYzJwYS5pbmdyZWRpZW50LnYzZGhhc2hYIOdD/d8UVY+NtoAdwG0BbFC6ZeO4GACCeR5WoJAjdV3zaGRjOnRpdGxleBpSZWNyYWZ0IEFJIEdlbmVyYXRlZCBJbWFnZWNhbGdmc2hhMjU2AAAH3Gp1bWIAAAAoanVtZGMyY3MAEQAQgAAAqgA4m3EDYzJwYS5zaWduYXR1cmUAAAAHrGNib3LShFkDsKIBJhghglkB5zCCAeMwggGJoAMCAQICCQC33lpjQ1FuejAKBggqhkjOPQQDAjBAMR8wHQYDVQQDDBZSZWNyYWZ0IFN0YWdpbmcgRGV2IENBMRAwDgYDVQQKDAdSZWNyYWZ0MQswCQYDVQQGEwJVUzAeFw0yNjA2MTIxOTQzNTBaFw0yNzA2MTIxOTQzNTBaMDcxCzAJBgNVBAYTAlVTMRMwEQYDVQQKEwpSZWNyYWZ0IEFJMRMwEQYDVQQDEwpyZWNyYWZ0LmFpMFkwEwYHKoZIzj0CAQYIKoZIzj0DAQcDQgAESmk1WwArIPw3hty3jsWHSA/1QOhBRu9xOjpJ2/iiIghScoEVM+Lnjds/7dqmG+giFL0vEb4DoogpX6KrGLcPNaN1MHMwDAYDVR0TAQH/BAIwADAOBgNVHQ8BAf8EBAMCBsAwEwYDVR0lBAwwCgYIKwYBBQUHAwQwHQYDVR0OBBYEFC8x6QXp/eki9cuCDx2vDJDLIV39MB8GA1UdIwQYMBaAFAILKjgayqqXSv/5v5MWaO2UeHm3MAoGCCqGSM49BAMCA0gAMEUCIFPISltGl775PEkIFRTZGsevWJvWnvBrE9kWU0MPgedQAiEAtA+AZBKEQ+DdK9mUZDctB2Wlt1iAsv0GRjfeYpReMsxZAb0wggG5MIIBX6ADAgECAgkAnPloO0+gE28wCgYIKoZIzj0EAwIwQDEfMB0GA1UEAwwWUmVjcmFmdCBTdGFnaW5nIERldiBDQTEQMA4GA1UECgwHUmVjcmFmdDELMAkGA1UEBhMCVVMwHhcNMjYwNjEyMTk0MDE2WhcNMjgwNjExMTk0MDE2WjBAMR8wHQYDVQQDDBZSZWNyYWZ0IFN0YWdpbmcgRGV2IENBMRAwDgYDVQQKDAdSZWNyYWZ0MQswCQYDVQQGEwJVUzBZMBMGByqGSM49AgEGCCqGSM49AwEHA0IABEPSEAZXFWymij2K0EnzoS/9NLO8VAwu0YpyLizvyNZPfcvcoeqFhfZD8Wj/rcdb9T3ji98q1arie99B9GRog8qjQjBAMA8GA1UdEwEB/wQFMAMBAf8wDgYDVR0PAQH/BAQDAgGGMB0GA1UdDgQWBBQCCyo4Gsqql0r/+b+TFmjtlHh5tzAKBggqhkjOPQQDAgNIADBFAiBUMDSJi5WA3kIY4BfmYqk24HLs0qpjicN0NpUP4bvNxQIhAPTvHC5v8X6FS6geI7XW7h84t1i/qdkTfg0RpMKWLMFboWNwYWRZA6QAAAAAAAAAAAAAAAAAAAAAAAAAAAAAAAAAAAAAAAAAAAAAAAAAAAAAAAAAAAAAAAAAAAAAAAAAAAAAAAAAAAAAAAAAAAAAAAAAAAAAAAAAAAAAAAAAAAAAAAAAAAAAAAAAAAAAAAAAAAAAAAAAAAAAAAAAAAAAAAAAAAAAAAAAAAAAAAAAAAAAAAAAAAAAAAAAAAAAAAAAAAAAAAAAAAAAAAAAAAAAAAAAAAAAAAAAAAAAAAAAAAAAAAAAAAAAAAAAAAAAAAAAAAAAAAAAAAAAAAAAAAAAAAAAAAAAAAAAAAAAAAAAAAAAAAAAAAAAAAAAAAAAAAAAAAAAAAAAAAAAAAAAAAAAAAAAAAAAAAAAAAAAAAAAAAAAAAAAAAAAAAAAAAAAAAAAAAAAAAAAAAAAAAAAAAAAAAAAAAAAAAAAAAAAAAAAAAAAAAAAAAAAAAAAAAAAAAAAAAAAAAAAAAAAAAAAAAAAAAAAAAAAAAAAAAAAAAAAAAAAAAAAAAAAAAAAAAAAAAAAAAAAAAAAAAAAAAAAAAAAAAAAAAAAAAAAAAAAAAAAAAAAAAAAAAAAAAAAAAAAAAAAAAAAAAAAAAAAAAAAAAAAAAAAAAAAAAAAAAAAAAAAAAAAAAAAAAAAAAAAAAAAAAAAAAAAAAAAAAAAAAAAAAAAAAAAAAAAAAAAAAAAAAAAAAAAAAAAAAAAAAAAAAAAAAAAAAAAAAAAAAAAAAAAAAAAAAAAAAAAAAAAAAAAAAAAAAAAAAAAAAAAAAAAAAAAAAAAAAAAAAAAAAAAAAAAAAAAAAAAAAAAAAAAAAAAAAAAAAAAAAAAAAAAAAAAAAAAAAAAAAAAAAAAAAAAAAAAAAAAAAAAAAAAAAAAAAAAAAAAAAAAAAAAAAAAAAAAAAAAAAAAAAAAAAAAAAAAAAAAAAAAAAAAAAAAAAAAAAAAAAAAAAAAAAAAAAAAAAAAAAAAAAAAAAAAAAAAAAAAAAAAAAAAAAAAAAAAAAAAAAAAAAAAAAAAAAAAAAAAAAAAAAAAAAAAAAAAAAAAAAAAAAAAAAAAAAAAAAAAAAAAAAAAAAAAAAAAAAAAAAAAAAAAAAAAAAAAAAAAAAAAAAAAAAAAAAAAAAAAAAAAAAAAAAAAAAAAAAAAAAAAAAAAAAAAAAAAAAAAAAAAAAAAAAAAAAAAAAAAAAAAAAAAAAAAAAAAAAAAAAAAAAAAAAAAAAAAAAAAAAAAAAAAAAAAAAAAAAAAAPZYQHoi6/rKByHV0V5bivJQgXIfWhQT/9k3PPvsx15WyHqgT/sgU02PhydjgjjRYuHdKUTgI/cOzIwNKjdIvFrLaL8AABY5anVtYgAAAEdqdW1kYzJtYQARABCAAACqADibcQN1cm46YzJwYTo1ZjdjNDM5ZC00MGQxLTQzOTItOWExZi01NDllZjA5MTU3YzYAAAALeGp1bWIAAAApanVtZGMyYXMAEQAQgAAAqgA4m3EDYzJwYS5hc3NlcnRpb25zAAAACJVqdW1iAAAARGp1bWRjYm9yABEAEIAAAKoAOJtxE2MycGEuaW5ncmVkaWVudC52MwAAAAAYYzJzaPOhjdti3SiCTdf5P0Oq31kAAAhJY2JvcqdscmVsYXRpb25zaGlwaHBhcmVudE9maGRjOnRpdGxlZnNvdXJjZWlkYzpmb3JtYXRtaW1hZ2Uvc3ZnK3htbHF2YWxpZGF0aW9uUmVzdWx0c6JuYWN0aXZlTWFuaWZlc3SjZ3N1Y2Nlc3OGo2Rjb2RleB1jbGFpbVNpZ25hdHVyZS5pbnNpZGVWYWxpZGl0eWN1cmx4TXNlbGYjanVtYmY9L2MycGEvdXJuOmMycGE6MjY4MTk1NTktZDFlMC00YWY3LTlkZjAtMzM2ZDIwYzE5YTc3L2MycGEuc2lnbmF0dXJla2V4cGxhbmF0aW9udWNsYWltIHNpZ25hdHVyZSB2YWxpZKNkY29kZXgYY2xhaW1TaWduYXR1cmUudmFsaWRhdGVkY3VybHhNc2VsZiNqdW1iZj0vYzJwYS91cm46YzJwYToyNjgxOTU1OS1kMWUwLTRhZjctOWRmMC0zMzZkMjBjMTlhNzcvYzJwYS5zaWduYXR1cmVrZXhwbGFuYXRpb251Y2xhaW0gc2lnbmF0dXJlIHZhbGlko2Rjb2RleBlhc3NlcnRpb24uaGFzaGVkVVJJLm1hdGNoY3VybHhec2VsZiNqdW1iZj0vYzJwYS91cm46YzJwYToyNjgxOTU1OS1kMWUwLTRhZjctOWRmMC0zMzZkMjBjMTlhNzcvYzJwYS5hc3NlcnRpb25zL2MycGEuYWN0aW9ucy52MmtleHBsYW5hdGlvbng+aGFzaGVkIHVyaSBtYXRjaGVkOiBzZWxmI2p1bWJmPWMycGEuYXNzZXJ0aW9ucy9jMnBhLmFjdGlvbnMudjKjZGNvZGV4GWFzc2VydGlvbi5oYXNoZWRVUkkubWF0Y2hjdXJseF1zZWxmI2p1bWJmPS9jMnBhL3VybjpjMnBhOjI2ODE5NTU5LWQxZTAtNGFmNy05ZGYwLTMzNmQyMGMxOWE3Ny9jMnBhLmFzc2VydGlvbnMvYzJwYS5oYXNoLmRhdGFrZXhwbGFuYXRpb254PWhhc2hlZCB1cmkgbWF0Y2hlZDogc2VsZiNqdW1iZj1jMnBhLmFzc2VydGlvbnMvYzJwYS5oYXNoLmRhdGGjZGNvZGV4GWFzc2VydGlvbi5oYXNoZWRVUkkubWF0Y2hjdXJseGFzZWxmI2p1bWJmPS9jMnBhL3VybjpjMnBhOjI2ODE5NTU5LWQxZTAtNGFmNy05ZGYwLTMzNmQyMGMxOWE3Ny9jMnBhLmFzc2VydGlvbnMvYzJwYS5pbmdyZWRpZW50LnYza2V4cGxhbmF0aW9ueEFoYXNoZWQgdXJpIG1hdGNoZWQ6IHNlbGYjanVtYmY9YzJwYS5hc3NlcnRpb25zL2MycGEuaW5ncmVkaWVudC52M6NkY29kZXgYYXNzZXJ0aW9uLmRhdGFIYXNoLm1hdGNoY3VybHhdc2VsZiNqdW1iZj0vYzJwYS91cm46YzJwYToyNjgxOTU1OS1kMWUwLTRhZjctOWRmMC0zMzZkMjBjMTlhNzcvYzJwYS5hc3NlcnRpb25zL2MycGEuaGFzaC5kYXRha2V4cGxhbmF0aW9ub2RhdGEgaGFzaCB2YWxpZG1pbmZvcm1hdGlvbmFsgGdmYWlsdXJlgaNkY29kZXgbc2lnbmluZ0NyZWRlbnRpYWwudW50cnVzdGVkY3VybHhNc2VsZiNqdW1iZj0vYzJwYS91cm46YzJwYToyNjgxOTU1OS1kMWUwLTRhZjctOWRmMC0zMzZkMjBjMTlhNzcvYzJwYS5zaWduYXR1cmVrZXhwbGFuYXRpb254HXNpZ25pbmcgY2VydGlmaWNhdGUgdW50cnVzdGVkcGluZ3JlZGllbnREZWx0YXOBonZpbmdyZWRpZW50QXNzZXJ0aW9uVVJJeGFzZWxmI2p1bWJmPS9jMnBhL3VybjpjMnBhOjI2ODE5NTU5LWQxZTAtNGFmNy05ZGYwLTMzNmQyMGMxOWE3Ny9jMnBhLmFzc2VydGlvbnMvYzJwYS5pbmdyZWRpZW50LnYzcHZhbGlkYXRpb25EZWx0YXOjZ3N1Y2Nlc3OAbWluZm9ybWF0aW9uYWyBo2Rjb2RleBxpbmdyZWRpZW50LnVua25vd25Qcm92ZW5hbmNlY3VybHhhc2VsZiNqdW1iZj0vYzJwYS91cm46YzJwYToyNjgxOTU1OS1kMWUwLTRhZjctOWRmMC0zMzZkMjBjMTlhNzcvYzJwYS5hc3NlcnRpb25zL2MycGEuaW5ncmVkaWVudC52M2tleHBsYW5hdGlvbngrc291cmNlOiBpbmdyZWRpZW50IGRvZXMgbm90IGhhdmUgcHJvdmVuYW5jZWdmYWlsdXJlgGppbnN0YW5jZUlEeCx4bXA6aWlkOjg2YmMxNzljLTEzOWQtNDljNC1iODQ4LTBhYWNmNzMxYzNmY25hY3RpdmVNYW5pZmVzdKNjdXJseD5zZWxmI2p1bWJmPS9jMnBhL3VybjpjMnBhOjI2ODE5NTU5LWQxZTAtNGFmNy05ZGYwLTMzNmQyMGMxOWE3N2NhbGdmc2hhMjU2ZGhhc2hYIKDwUwoDxmKawq8MTMwAnpbTr57tYflGwb7J1rhKtzZbbmNsYWltU2lnbmF0dXJlo2N1cmx4TXNlbGYjanVtYmY9L2MycGEvdXJuOmMycGE6MjY4MTk1NTktZDFlMC00YWY3LTlkZjAtMzM2ZDIwYzE5YTc3L2MycGEuc2lnbmF0dXJlY2FsZ2ZzaGEyNTZkaGFzaFggQCyKZcrPfy/4jj/uQCtvUuyEm6Ug+K+75DbiA6nyGKIAAAHuanVtYgAAAEFqdW1kY2JvcgARABCAAACqADibcRNjMnBhLmFjdGlvbnMudjIAAAAAGGMyc2gHJC9nO/d9ArIU3vS7UD+vAAABpWNib3KhZ2FjdGlvbnOComZhY3Rpb25rYzJwYS5vcGVuZWRqcGFyYW1ldGVyc6FraW5ncmVkaWVudHOBomN1cmx4LXNlbGYjanVtYmY9YzJwYS5hc3NlcnRpb25zL2MycGEuaW5ncmVkaWVudC52M2RoYXNoWCC51y4wpbL1uyk6Dt1bAJUVXtj3Y4Odq6SNRvfA31Gi86RmYWN0aW9ubGMycGEuY3JlYXRlZGpwYXJhbWV0ZXJzoWtpbmdyZWRpZW50c4GiY3VybHgtc2VsZiNqdW1iZj1jMnBhLmFzc2VydGlvbnMvYzJwYS5pbmdyZWRpZW50LnYzZGhhc2hYILnXLjClsvW7KToO3VsAlRVe2Pdjg52rpI1G98DfUaLzcWRpZ2l0YWxTb3VyY2VUeXBleEFodHRwOi8vY3YuaXB0Yy5vcmcvbmV3c2NvZGVzL2RpZ2l0YWxzb3VyY2V0eXBlL2NvbXBvc2l0ZVN5bnRoZXRpY2tkZXNjcmlwdGlvbngfQ29tcG9zZWQgaW4gdGhlIFJlY3JhZnQgZWRpdG9yLgAAAMRqdW1iAAAAQGp1bWRjYm9yABEAEIAAAKoAOJtxE2MycGEuaGFzaC5kYXRhAAAAABhjMnNoCTXaneZR63wGbk6EvJtgEQAAAHxjYm9ypWpleGNsdXNpb25zgaJlc3RhcnQYmmZsZW5ndGgZMSxkbmFtZW5qdW1iZiBtYW5pZmVzdGNhbGdmc2hhMjU2ZGhhc2hYIAIpkY4Hjqd4mCFCgKderlC942w+t/m3mIz2hXCrY2CdY3BhZEkAAAAAAAAAAAAAAAKWanVtYgAAACdqdW1kYzJjbAARABCAAACqADibcQNjMnBhLmNsYWltLnYyAAAAAmdjYm9yp2ppbnN0YW5jZUlEeCx4bXA6aWlkOjViMGFiZDVhLTgwZjItNDExYy1iYjVhLTI2OTMxMGVjNDNjOXRjbGFpbV9nZW5lcmF0b3JfaW5mb6NkbmFtZWpyZWNyYWZ0LmFpZ3ZlcnNpb254KDgxY2U4MmUyYzVjM2NiZmJlOGM2ZmJlMTc5ZDVmOGQ5MWM0MDljZTF3b3JnLmNvbnRlbnRhdXRoLmMycGFfcnNmMC45MC43aXNpZ25hdHVyZXhNc2VsZiNqdW1iZj0vYzJwYS91cm46YzJwYTo1ZjdjNDM5ZC00MGQxLTQzOTItOWExZi01NDllZjA5MTU3YzYvYzJwYS5zaWduYXR1cmVyY3JlYXRlZF9hc3NlcnRpb25zgqJjdXJseCpzZWxmI2p1bWJmPWMycGEuYXNzZXJ0aW9ucy9jMnBhLmFjdGlvbnMudjJkaGFzaFggULp1soWWw+1hV5zBAfrIxTKINEYHyLobxfjUkKEJ9CWiY3VybHgpc2VsZiNqdW1iZj1jMnBhLmFzc2VydGlvbnMvYzJwYS5oYXNoLmRhdGFkaGFzaFggPJe2WV6+au8jDbuTOSfVIo/ES34bgAiDfQLxOOga9JZzZ2F0aGVyZWRfYXNzZXJ0aW9uc4GiY3VybHgtc2VsZiNqdW1iZj1jMnBhLmFzc2VydGlvbnMvYzJwYS5pbmdyZWRpZW50LnYzZGhhc2hYILnXLjClsvW7KToO3VsAlRVe2Pdjg52rpI1G98DfUaLzaGRjOnRpdGxlbVJlY3JhZnQgSW1hZ2VjYWxnZnNoYTI1NgAAB9xqdW1iAAAAKGp1bWRjMmNzABEAEIAAAKoAOJtxA2MycGEuc2lnbmF0dXJlAAAAB6xjYm9y0oRZA7CiASYYIYJZAecwggHjMIIBiaADAgECAgkAt95aY0NRbnowCgYIKoZIzj0EAwIwQDEfMB0GA1UEAwwWUmVjcmFmdCBTdGFnaW5nIERldiBDQTEQMA4GA1UECgwHUmVjcmFmdDELMAkGA1UEBhMCVVMwHhcNMjYwNjEyMTk0MzUwWhcNMjcwNjEyMTk0MzUwWjA3MQswCQYDVQQGEwJVUzETMBEGA1UEChMKUmVjcmFmdCBBSTETMBEGA1UEAxMKcmVjcmFmdC5haTBZMBMGByqGSM49AgEGCCqGSM49AwEHA0IABEppNVsAKyD8N4bct47Fh0gP9UDoQUbvcTo6Sdv4oiIIUnKBFTPi543bP+3aphvoIhS9LxG+A6KIKV+iqxi3DzWjdTBzMAwGA1UdEwEB/wQCMAAwDgYDVR0PAQH/BAQDAgbAMBMGA1UdJQQMMAoGCCsGAQUFBwMEMB0GA1UdDgQWBBQvMekF6f3pIvXLgg8drwyQyyFd/TAfBgNVHSMEGDAWgBQCCyo4Gsqql0r/+b+TFmjtlHh5tzAKBggqhkjOPQQDAgNIADBFAiBTyEpbRpe++TxJCBUU2RrHr1ib1p7waxPZFlNDD4HnUAIhALQPgGQShEPg3SvZlGQ3LQdlpbdYgLL9BkY33mKUXjLMWQG9MIIBuTCCAV+gAwIBAgIJAJz5aDtPoBNvMAoGCCqGSM49BAMCMEAxHzAdBgNVBAMMFlJlY3JhZnQgU3RhZ2luZyBEZXYgQ0ExEDAOBgNVBAoMB1JlY3JhZnQxCzAJBgNVBAYTAlVTMB4XDTI2MDYxMjE5NDAxNloXDTI4MDYxMTE5NDAxNlowQDEfMB0GA1UEAwwWUmVjcmFmdCBTdGFnaW5nIERldiBDQTEQMA4GA1UECgwHUmVjcmFmdDELMAkGA1UEBhMCVVMwWTATBgcqhkjOPQIBBggqhkjOPQMBBwNCAARD0hAGVxVspoo9itBJ86Ev/TSzvFQMLtGKci4s78jWT33L3KHqhYX2Q/Fo/63HW/U944vfKtWq4nvfQfRkaIPKo0IwQDAPBgNVHRMBAf8EBTADAQH/MA4GA1UdDwEB/wQEAwIBhjAdBgNVHQ4EFgQUAgsqOBrKqpdK//m/kxZo7ZR4ebcwCgYIKoZIzj0EAwIDSAAwRQIgVDA0iYuVgN5CGOAX5mKpNuBy7NKqY4nDdDaVD+G7zcUCIQD07xwub/F+hUuoHiO11u4fOLdYv6nZE34NEaTClizBW6FjcGFkWQOkAAAAAAAAAAAAAAAAAAAAAAAAAAAAAAAAAAAAAAAAAAAAAAAAAAAAAAAAAAAAAAAAAAAAAAAAAAAAAAAAAAAAAAAAAAAAAAAAAAAAAAAAAAAAAAAAAAAAAAAAAAAAAAAAAAAAAAAAAAAAAAAAAAAAAAAAAAAAAAAAAAAAAAAAAAAAAAAAAAAAAAAAAAAAAAAAAAAAAAAAAAAAAAAAAAAAAAAAAAAAAAAAAAAAAAAAAAAAAAAAAAAAAAAAAAAAAAAAAAAAAAAAAAAAAAAAAAAAAAAAAAAAAAAAAAAAAAAAAAAAAAAAAAAAAAAAAAAAAAAAAAAAAAAAAAAAAAAAAAAAAAAAAAAAAAAAAAAAAAAAAAAAAAAAAAAAAAAAAAAAAAAAAAAAAAAAAAAAAAAAAAAAAAAAAAAAAAAAAAAAAAAAAAAAAAAAAAAAAAAAAAAAAAAAAAAAAAAAAAAAAAAAAAAAAAAAAAAAAAAAAAAAAAAAAAAAAAAAAAAAAAAAAAAAAAAAAAAAAAAAAAAAAAAAAAAAAAAAAAAAAAAAAAAAAAAAAAAAAAAAAAAAAAAAAAAAAAAAAAAAAAAAAAAAAAAAAAAAAAAAAAAAAAAAAAAAAAAAAAAAAAAAAAAAAAAAAAAAAAAAAAAAAAAAAAAAAAAAAAAAAAAAAAAAAAAAAAAAAAAAAAAAAAAAAAAAAAAAAAAAAAAAAAAAAAAAAAAAAAAAAAAAAAAAAAAAAAAAAAAAAAAAAAAAAAAAAAAAAAAAAAAAAAAAAAAAAAAAAAAAAAAAAAAAAAAAAAAAAAAAAAAAAAAAAAAAAAAAAAAAAAAAAAAAAAAAAAAAAAAAAAAAAAAAAAAAAAAAAAAAAAAAAAAAAAAAAAAAAAAAAAAAAAAAAAAAAAAAAAAAAAAAAAAAAAAAAAAAAAAAAAAAAAAAAAAAAAAAAAAAAAAAAAAAAAAAAAAAAAAAAAAAAAAAAAAAAAAAAAAAAAAAAAAAAAAAAAAAAAAAAAAAAAAAAAAAAAAAAAAAAAAAAAAAAAAAAAAAAAAAAAAAAAAAAAAAAAAAAAAAAAAAAAAAAAAAAAAAAAAAAAAAAAAAAAAAAAAAAAAAAAAAAAAAAAAAAAAAAAAAAAAAAAAAAAAAAAAAAAAAAAAAAAAAAAAAAAAAAAAAAAAAAAAAAAAAAAAAAAAAAAAAAAAAAAAAAAAAAAAAAAAAAAAAAAAAAAAAAAAAAAAAAAAAAAAAAAAAAAAAAAD2WEAKxK3K68f7LEznDcc4YmVaV2m2MUqVSfXX7wz/Q8F+p898zdt9yrjEsKYtoCPH+ge+MCkqeaw/QEiYbtg8pKuP</c2pa:manifest></metadata><path fill="#000001" d="M169.145 0h686.826l.549.467c7.851 2.601 16.807 2.87 24.954 4.762 56.082 13.027 103.845 51.97 126.216 105.278 3.58 8.526 6.44 17.49 9.03 26.374 1.17 3.922 2.58 9.854 4.09 13.51-.3-2.438-1.61-10.087-1.33-11.91 1.23 2.001 1.73 3.743 2.52 5.945l-.16-1.012c.78 1.91 1.38 2.83 1.2 4.809l-.68.406c.92.884.36.616 1.64.949v701.239c-1.76 2.326-2.25 10.962-2.68 14.183a197 197 0 0 1-5.24 26.448c-2.92 10.989-7.18 21.206-12.25 31.356a181.92 181.92 0 0 1-120.509 95.176c-5.322 1.31-23.525 3.99-26.417 6.02H171.102c-.965-.63-1.664-.91-2.822-1.04-12.257-1.41-23.69-2.98-35.516-6.54C73.759 998.634 25.756 953.375 8.459 893.732c-3.19-10.731-5.303-21.668-6.792-32.754-.31-2.312-.316-4.217-1.667-6.169V165.533c1.922-2.305 4.97-21.209 6.223-26.188C21.408 76.838 68.665 27.109 130.317 8.758c6.072-1.827 37.69-7.88 38.828-8.758"/><path fill="#000001" d="M512.115 362.833c.773-5.342 6.358-3.217 10.911-4.741 4.515-1.512 3.383-4.131 6.791-5.687 2.667-1.218 11.806-1.316 14.356-.381l-.066.333c-1.871 1.362-2.67 1.046-4.733 2.016 6.577.661 10.972.031 15.528 4.497 3.196-.265 10.361-1.041 12.608 1.103 3.079 2.94 3.361 8.011 6.519 11.531 6.027 2.258 12.961 3.917 18.685 6.599.949.445 1.751 2.478 2.179 3.475 2.392-1.725 1.497-3.2 1.002-6.095 7.298 3.005 16.286 7.809 16.03 16.986l.509 1.248c.817.209 1.387.323 2.218.464 1.745 2.458 1.876 3.948 4.052 5.808 2.543.198 3.298-.389 4.71.766.437 1.938.132 2.099 1.303 3.243l.683.14c5.479 1.157 5.032 4.324 8.6 8.166 2.422 2.607 4.763 5.246 7.18 7.85.773.92 1.403 6.628 1.74 8.052 1.708-4.913 1.259-9.151 2.57-14.151l.139.573c1.729 7.331 2.068 15.563 5.627 22.587.479.945 5.301 4.661 5.447 5 4.441 10.283 6.756 20.585 11.409 30.965.745-1.821.551-2.306 1.892-3.124 4.709 3.118 1.643 18.926 2.516 23.95.941 2.742-.347 6.91.928 9.008 3.131-.273 2.249-4.848 5.593 4.315-1.668 3.096-3.537 3.789-6.909 4.828l-.884.264c-.483 2.175-.116 5.032-.955 6.497l-.776.217.021.24c-1.586.901-2.754 1.683-4.516 2.186-.606 2.129-.008 1.381-1.528 2.548l-1.795-.133q-.583.836-1.18 1.659c-6.406-.554-11.595-2.138-13.806 5.446-.347 1.901-.574 3.204-1.127 5.045l.996 1.681c-3.142 4.177-3.527 3.79-5.528 8.814l-1.82 5.62-2.259 6.704c-1.079 2.846-2.11 5.631-3.342 8.417-.209 5.407-1.658 11.451-7.344 13.366l-.635 1.192c.219 4.144-1.5 8.272-5.725 9.568-2.541 3.679-4.997 7.267-8.055 10.546-1.275 1.524-2.968 3.981-4.811 4.472-2.892 2.005-.277 3.448-5.819 5.584-2.369 2.439-4.182 5.246-6.841 7.525-27.421 23.496-61.488 32.034-96.619 28.149-40.608-4.491-69.439-23.482-93.07-55.518-12.346-17.797-21.469-40.067-22.132-61.834-.28-9.191-.515-30.091 1.292-38.282 5.309-24.063 17.89-46.263 34.258-64.196 3.477-4.244 9.719-9.515 14.02-12.854 19.02-14.49 30.274-17.946 51.68-25.204 3.317-.827 5.578-1.47 9.016-1.363.085-1.307-.018-1.646.537-2.8 3.018-1.499 9.148.064 12.671.674.878-2.065.308-6.514-.309-8.651-1.159.137-.734.228-1.76-.164.211-3.986 1.546-2.059 3.294-5.193-.442-2.428.013-3.985.429-6.415 1.936-1.069 3.376-1.448 4.405-3.131"/><path fill="#c5a0f0" d="M512.115 362.833c.773-5.342 6.358-3.217 10.911-4.741 4.515-1.512 3.383-4.131 6.791-5.687 2.667-1.218 11.806-1.316 14.356-.381l-.066.333c-1.871 1.362-2.67 1.046-4.733 2.016 6.577.661 10.972.031 15.528 4.497 3.196-.265 10.361-1.041 12.608 1.103 3.079 2.94 3.361 8.011 6.519 11.531 6.027 2.258 12.961 3.917 18.685 6.599.949.445 1.751 2.478 2.179 3.475 2.392-1.725 1.497-3.2 1.002-6.095 7.298 3.005 16.286 7.809 16.03 16.986l.509 1.248c.817.209 1.387.323 2.218.464 1.745 2.458 1.876 3.948 4.052 5.808 2.543.198 3.298-.389 4.71.766.437 1.938.132 2.099 1.303 3.243l.683.14c5.479 1.157 5.032 4.324 8.6 8.166 2.422 2.607 4.763 5.246 7.18 7.85.773.92 1.403 6.628 1.74 8.052 1.708-4.913 1.259-9.151 2.57-14.151l.139.573c1.729 7.331 2.068 15.563 5.627 22.587.479.945 5.301 4.661 5.447 5 4.441 10.283 6.756 20.585 11.409 30.965.745-1.821.551-2.306 1.892-3.124 4.709 3.118 1.643 18.926 2.516 23.95.941 2.742-.347 6.91.928 9.008 3.131-.273 2.249-4.848 5.593 4.315-1.668 3.096-3.537 3.789-6.909 4.828l-.884.264c-.483 2.175-.116 5.032-.955 6.497l-.776.217.021.24c-1.586.901-2.754 1.683-4.516 2.186-.606 2.129-.008 1.381-1.528 2.548l-1.795-.133q-.583.836-1.18 1.659c-6.406-.554-11.595-2.138-13.806 5.446-.347 1.901-.574 3.204-1.127 5.045l.996 1.681c-3.142 4.177-3.527 3.79-5.528 8.814l-1.82 5.62c-1.627-3.688-.657-11.26-.372-15.625l-.236.206c.261-3.837 1.376-11.766.706-14.86-3.283.037-10.709-.243-13.311.407l-1.09.652-.432-.254c-1.449-1.155-14.423-1.925-17.858-2.517-.393-.409-.826-1.543-1.091-2.127-.524-2.611-.476-4.356-.533-6.994.06-5.037.091-7.519-1.056-12.385-2.651-13.082-6.772-22.815-15.673-32.63-1-2.155-2.072-3.549-4.279-4.52-2.456-1.079-3.468-5.084-4.872-7.662-5.615-11.533-19.085-16.604-30.739-21.839-5.044-2.512-11.56-4.281-17.102-5.208-4.87-.943-10.03-1.288-14.976-1.496-2.74-1.174-3.918-2.582-5.828-4.791l-.464-.163-1.31.024c-1.509-1.508-1.518-8.809-1.754-11.574-3.432-.859-5.066-1.295-8.601-1.616-3.498.697-12.342 2.865-15.323 2.043l1.131-1.795c3.824-.899 10.43-2.48 14.196-2.517 3.532-1.479 8.32-1.11 12.547-2.26 1.809-1.188 1.285-1.247 3.03-1.135l.812.566c.245-2.756.651-7.381-.327-9.934-1.198.353-2.159.064-3.41-.134a180 180 0 0 0-19.863.367l-2.779.926c-1.573-1.113-3.041-2.319-4.545-3.52 3.317-.827 5.578-1.47 9.016-1.363.085-1.307-.018-1.646.537-2.8 3.018-1.499 9.148.064 12.671.674.878-2.065.308-6.514-.309-8.651-1.159.137-.734.228-1.76-.164.211-3.986 1.546-2.059 3.294-5.193-.442-2.428.013-3.985.429-6.415 1.936-1.069 3.376-1.448 4.405-3.131"/><path fill="#e3d5f5" d="M514.429 392.237c4.09-4.957 10.057-5.876 16.09-4.825 16.024 2.793 33.986 8.68 48.074 16.411a129 129 0 0 1 20.789 14.297 128.1 128.1 0 0 1 45.903 87.43c.863 10.027-2.959 12.271-12.163 11.96-4.282-2.481-6.377-4.848-7.121-10.106-6.906-48.771-39.831-90.841-90.276-98.524-5.992-.913-17.703-1.592-20.969-6.709.245-2.756.651-7.381-.327-9.934"/><path fill="#8c38e7" d="M574.029 371.504c6.027 2.258 12.961 3.917 18.685 6.599.949.445 1.751 2.478 2.179 3.475 2.392-1.725 1.497-3.2 1.002-6.095 7.298 3.005 16.286 7.809 16.03 16.986l.509 1.248c.817.209 1.387.323 2.218.464 1.745 2.458 1.876 3.948 4.052 5.808 2.543.198 3.298-.389 4.71.766.437 1.938.132 2.099 1.303 3.243l.683.14c5.479 1.157 5.032 4.324 8.6 8.166 2.422 2.607 4.763 5.246 7.18 7.85.773.92 1.403 6.628 1.74 8.052 1.708-4.913 1.259-9.151 2.57-14.151l.139.573c1.729 7.331 2.068 15.563 5.627 22.587.479.945 5.301 4.661 5.447 5 4.441 10.283 6.756 20.585 11.409 30.965.771 2.57 1.306 8.239 1.071 10.844l-2.927.315c-2.529-11.6-5.599-21.306-10.77-32.082a256 256 0 0 0-6.373-12.4c-2.025-3.627-6.35-9.355-7.521-12.8-1.136-3.342-3.806-5.136-6.251-7.847-10.314-11.432-20.032-19.771-32.309-28.941-2.42-.969-8.028-4.857-10.823-6.416a199 199 0 0 0-23.343-11.138 105 105 0 0 0 5.163-1.211"/><path fill="#762ad7" d="M595.895 375.483c7.298 3.005 16.286 7.809 16.03 16.986-1.059-1.379-4.505-1.841-6.356-2.268l-1.851-1.599c-.423-1.697-.437-2.247-1.548-3.631-2.435-1.285-3.014.726-5.431-.456-.07-1.379-.002-1.427-.498-2.689l-1.348-.248c2.392-1.725 1.497-3.2 1.002-6.095"/><path fill="#762ad7" d="M512.115 362.833c.773-5.342 6.358-3.217 10.911-4.741 4.515-1.512 3.383-4.131 6.791-5.687 2.667-1.218 11.806-1.316 14.356-.381l-.066.333c-1.871 1.362-2.67 1.046-4.733 2.016 6.577.661 10.972.031 15.528 4.497 3.196-.265 10.361-1.041 12.608 1.103 3.079 2.94 3.361 8.011 6.519 11.531a105 105 0 0 1-5.163 1.211c-20.342-7.128-31.167-8.416-52.642-10.088l-1.693.537c-1.304.148-1.217.183-2.416-.331"/><path fill="#5115a7" d="M512.115 362.833c.773-5.342 6.358-3.217 10.911-4.741 4.515-1.512 3.383-4.131 6.791-5.687 2.667-1.218 11.806-1.316 14.356-.381l-.066.333c-1.871 1.362-2.67 1.046-4.733 2.016-3.17-.045-6.369 3.474-9.134 5.711-4.018.791-10.194 2.198-14.016 2.543l-1.693.537c-1.304.148-1.217.183-2.416-.331"/><path fill="#6523c1" d="M530.24 360.084c2.765-2.237 5.964-5.756 9.134-5.711 6.577.661 10.972.031 15.528 4.497l-3.133 1.102c-6.034-.83-10.248.03-16.213.034z"/><path fill="#762ad7" d="M668.112 473.18c.745-1.821.551-2.306 1.892-3.124 4.709 3.118 1.643 18.926 2.516 23.95.941 2.742-.347 6.91.928 9.008 3.131-.273 2.249-4.848 5.593 4.315-1.668 3.096-3.537 3.789-6.909 4.828l-.884.264c.214-1.706.276-3.886.379-5.64-.521-5.256-.6-8.658-.606-13.884-2.621-3.49-2.196-4.546-1.838-8.873.235-2.605-.3-8.274-1.071-10.844"/><path fill="#6523c1" d="m642.868 522.437 22.154-.876c-.606 2.129-.008 1.381-1.528 2.548l-1.795-.133q-.583.836-1.18 1.659c-6.406-.554-11.595-2.138-13.806 5.446-1.96.73-3.324 1.138-5.348 1.676.296-3.109 1.025-7.158 1.503-10.32"/><path fill="#8c38e7" d="m666.256 484.339 2.927-.315c-.358 4.327-.783 5.383 1.838 8.873.006 5.226.085 8.628.606 13.884-.103 1.754-.165 3.934-.379 5.64-.483 2.175-.116 5.032-.955 6.497l-.776.217c-.806-13.645-1.129-21.031-3.261-34.796"/><path fill="#5115a7" d="M507.281 372.379c1.603-.033 1.599-.162 2.964.604 1.066 1.964.593 3.435.823 5.63.1 3.104.658 6.236-.704 8.815-1.14.919-2.351.738-3.883.794l-.425-1.835c.878-2.065.308-6.514-.309-8.651-1.159.137-.734.228-1.76-.164.211-3.986 1.546-2.059 3.294-5.193"/><path fill="#5115a7" d="M498.363 407.269c2.374-2.255 8.002-1.368 11.82-1.395l-.155 14.561-1.31.024c-1.509-1.508-1.518-8.809-1.754-11.574-3.432-.859-5.066-1.295-8.601-1.616"/><path fill="#ae93d7" d="M484.171 407.517c3.824-.899 10.43-2.48 14.196-2.517 3.433.558 8.682.379 12.286.335-.023 3.972.152 11.575-.161 15.263l-.464-.163.155-14.561c-3.818.027-9.446-.86-11.82 1.395-3.498.697-12.342 2.865-15.323 2.043z"/><path fill="#6523c1" d="M507.71 365.964c1.936-1.069 3.376-1.448 4.405-3.131 1.199.514 1.112.479 2.416.331-4.858 5.098-2.431 8.96-3.463 15.449-.23-2.195.243-3.666-.823-5.63-1.365-.766-1.361-.637-2.964-.604-.442-2.428.013-3.985.429-6.415"/><path fill="#6523c1" d="M492.848 388.513c.085-1.307-.018-1.646.537-2.8 3.018-1.499 9.148.064 12.671.674l.425 1.835q-4.296.285-8.6.431c-1.842.034-3.195-.016-5.033-.14"/><path fill="#ae93d7" d="M483.832 389.876c3.317-.827 5.578-1.47 9.016-1.363 1.838.124 3.191.174 5.033.14-1.939.963-4.006-.161-4.859 1.324-.812 1.416-.355 1.502-1.866 2.493l-2.779.926c-1.573-1.113-3.041-2.319-4.545-3.52"/><path fill="#5115a7" d="M640.6 538.553c2.094-1.506 2.539-2.074 4.986-2.427l.996 1.681c-3.142 4.177-3.527 3.79-5.528 8.814-1.202-2.438-.674-5.367-.454-8.068"/><path fill="#6523c1" d="M641.365 532.757c2.024-.538 3.388-.946 5.348-1.676-.347 1.901-.574 3.204-1.127 5.045-2.447.353-2.892.921-4.986 2.427z"/><path fill="#e3d5f5" d="M432.152 415.08c19.02-14.49 30.274-17.946 51.68-25.204 1.504 1.201 2.972 2.407 4.545 3.52l2.779-.926a180 180 0 0 1 19.863-.367c1.251.198 2.212.487 3.41.134.978 2.553.572 7.178.327 9.934l-.812-.566c-1.745-.112-1.221-.053-3.03 1.135-4.227 1.15-9.015.781-12.547 2.26-3.766.037-10.372 1.618-14.196 2.517l-1.131 1.795c-2.899.454-7.392 2.127-9.948 3.61-16.209 9.407-31.503 19.221-43.835 33.587-2.237 3.027-4.872 6.797-7.355 9.519-17.115 23.623-22.213 51.628-17.644 80.136a107.62 107.62 0 0 0 43.081 70.543c4.273 3.048 9.231 6.079 13.735 8.736 6.561 3.402 11.625 5.726 18.736 8.118.579 2.292.81 3.127 1.779 5.269l3.258.703c16.036 4.739 43.335 4.843 59.116-.796l2.023-.654c1.719-6.213 5.301-2.73 7.604-7.913 18.259-8.316 29.357-14.938 42.468-30.67 13.66-16.39 19.79-31.816 25.115-52.017 1.623-2.873 2.071-5.314 2.687-8.474.104-2.525.173-3.771.639-6.242l.432.254 1.09-.652c2.602-.65 10.028-.37 13.311-.407.67 3.094-.445 11.023-.706 14.86l.236-.206c-.285 4.365-1.255 11.937.372 15.625l-2.259 6.704c-1.079 2.846-2.11 5.631-3.342 8.417-.209 5.407-1.658 11.451-7.344 13.366l-.635 1.192c.219 4.144-1.5 8.272-5.725 9.568-2.541 3.679-4.997 7.267-8.055 10.546-1.275 1.524-2.968 3.981-4.811 4.472-2.892 2.005-.277 3.448-5.819 5.584-2.369 2.439-4.182 5.246-6.841 7.525-27.421 23.496-61.488 32.034-96.619 28.149-40.608-4.491-69.439-23.482-93.07-55.518-12.346-17.797-21.469-40.067-22.132-61.834-.28-9.191-.515-30.091 1.292-38.282 5.309-24.063 17.89-46.263 34.258-64.196 3.477-4.244 9.719-9.515 14.02-12.854"/><path fill="#c5a0f0" d="M432.152 415.08c19.02-14.49 30.274-17.946 51.68-25.204 1.504 1.201 2.972 2.407 4.545 3.52-5.047 2.422-12.803 3.983-18.376 5.894-12.143 4.161-21.234 9.935-31.615 17.088-3.767 3.712-8.195 7.129-12.324 10.47-5.22 5.494-11.296 11.429-15.735 17.466-17.283 23.508-24.217 53.632-24.088 82.488.033 7.339 5.574 22.708 6.534 31.03.533 4.615 9.239 22.953 12.566 26.193 3.265 4.174 4.802 8.465 8.223 12.727 8.06 10.039 17.934 19.193 28.628 26.321 47.71 31.799 121.51 26.285 160.082-17.732l1.166.581 3.625.584c-2.892 2.005-.277 3.448-5.819 5.584-2.369 2.439-4.182 5.246-6.841 7.525-27.421 23.496-61.488 32.034-96.619 28.149-40.608-4.491-69.439-23.482-93.07-55.518-12.346-17.797-21.469-40.067-22.132-61.834-.28-9.191-.515-30.091 1.292-38.282 5.309-24.063 17.89-46.263 34.258-64.196 3.477-4.244 9.719-9.515 14.02-12.854"/><path fill="#ae93d7" d="M418.132 427.934c3.477-4.244 9.719-9.515 14.02-12.854l.646 3.191c-2.646 3.296-3.779 3.174-6.937 5.608-4.38 2.147-2.991 3.712-7.729 4.055"/><path fill="#ae93d7" d="m603.438 605.922 3.625.584c-2.892 2.005-.277 3.448-5.819 5.584-.084-3.326-.378-3.977 2.194-6.168"/><path fill="#c5a0f0" d="M455.171 617.665c-59.495-37.477-76.932-110.089-34.873-168.41 14.572-20.206 38.83-37.837 63.873-41.738l-1.131 1.795c-2.899.454-7.392 2.127-9.948 3.61-16.209 9.407-31.503 19.221-43.835 33.587-2.237 3.027-4.872 6.797-7.355 9.519-17.115 23.623-22.213 51.628-17.644 80.136a107.62 107.62 0 0 0 43.081 70.543c4.273 3.048 9.231 6.079 13.735 8.736-2.983.609-3.398.622-5.903 2.222"/><path fill="#ae93d7" d="M421.902 456.028c-1.159-3.836.479-9.376 4.971-10.826.685-.22 1.725.826 2.384 1.307-2.237 3.027-4.872 6.797-7.355 9.519"/><path fill="#c5a0f0" d="M626.021 522.369c-.034 6.042-.009 12.323-1.228 18.261-8.352 40.674-38.448 75.928-78.807 87.453 1.719-6.213 5.301-2.73 7.604-7.913 18.259-8.316 29.357-14.938 42.468-30.67 13.66-16.39 19.79-31.816 25.115-52.017 1.623-2.873 2.071-5.314 2.687-8.474.104-2.525.173-3.771.639-6.242l.432.254z"/><path fill="#c5a0f0" d="M631.542 559.543c2.053-.481 3.409-1.004 5.433-.598-1.079 2.846-2.11 5.631-3.342 8.417-.209 5.407-1.658 11.451-7.344 13.366l-.635 1.192c.219 4.144-1.5 8.272-5.725 9.568l-.847-1.29c-2.192 1.36-3.348 2.158-5.356 3.77-.479-1.407 1.784-3.338 2.689-6.39 2.053-4.412 4.536-4.685 5.691-6.617 3.401-5.686 7.411-15.174 9.436-21.418"/><path fill="#261a3d" d="M626.289 580.728c1.562-3.777 4.206-11.34 7.344-13.366-.209 5.407-1.658 11.451-7.344 13.366"/><path fill="#261a3d" d="M619.082 590.198c1.754-1.388 3.929-5.699 6.572-8.278.219 4.144-1.5 8.272-5.725 9.568z"/><path fill="#c7adee" d="M616.415 587.578c-.905 3.052-3.168 4.983-2.689 6.39 2.008-1.612 3.164-2.41 5.356-3.77l.847 1.29c-2.541 3.679-4.997 7.267-8.055 10.546-1.275 1.524-2.968 3.981-4.811 4.472l-3.625-.584-1.166-.581c.061-.174 13.024-16.343 14.143-17.763"/><path fill="#ae93d7" d="m619.082 590.198.847 1.29c-2.541 3.679-4.997 7.267-8.055 10.546-.006-4.343-.925-4.361 1.852-8.066 2.008-1.612 3.164-2.41 5.356-3.77"/><path fill="#c7adee" d="M639.332 521.962c.67 3.094-.445 11.023-.706 14.86l.236-.206c-.285 4.365-1.255 11.937.372 15.625l-2.259 6.704c-2.024-.406-3.38.117-5.433.598 2.185-7.174 4.103-16.23 5.594-23.637.908-4.513.95-9.315 2.196-13.944"/><path fill="#c5a0f0" d="M461.074 615.443c6.561 3.402 11.625 5.726 18.736 8.118.579 2.292.81 3.127 1.779 5.269-7.047-1.676-13.337-4.477-19.802-7.626z"/><path fill="#c7adee" d="M511.019 392.103c1.251.198 2.212.487 3.41.134.978 2.553.572 7.178.327 9.934l-.812-.566c-1.745-.112-1.221-.053-3.03 1.135.141-3.36.079-7.234.105-10.637"/><path fill="#c7adee" d="m461.074 615.443.713 5.761c-2.637-1.237-4.096-1.948-6.616-3.539 2.505-1.6 2.92-1.613 5.903-2.222"/><path fill="#c5a0f0" d="M493.269 626.779c12.632 2.421 30.492 2.086 42.957-1.06 5.434 2.248 4.958-2.024 7.737 3.018-15.781 5.639-43.08 5.535-59.116.796 3.253-1.282 4.989-.889 8.422-2.754"/><path fill="#6523c1" d="M531.296 426.885c5.542.927 12.058 2.696 17.102 5.208 11.654 5.235 25.124 10.306 30.739 21.839-1.761-.251-2.214-.268-4.001-.254-2.012 1.298-1.973 3.111-2.6 5.725-1.5-4.259-3.967-13.254-8.006-15.008-5.148-2.235-2.675.483-5.239 1.422-1.872-2.343-3.377-4.145-5.411-6.339-.627-2.131-4.514-5.074-6.441-6.496-3.512 1.909-4.546-3.917-8.782.082l-.499-.129c-.971-3.33-4.062-3.075-6.862-6.05"/><path fill="#762ad7" d="M588.288 466.114c8.901 9.815 13.022 19.548 15.673 32.63-1.823-1.814-1.544-2.832-2.429-4.98-2.671-6.484-6.362-2.299-9.127-10.56-.532-3.181-.419-7.148-.432-10.437-3.353-2.642-3.91-2.147-3.685-6.653"/><path fill="#6523c1" d="M592.405 483.204c2.765 8.261 6.456 4.076 9.127 10.56.885 2.148.606 3.166 2.429 4.98 1.147 4.866 1.116 7.348 1.056 12.385l-3.964-1.365c-.241-2.092-.61-7.806-1.57-9.148-.959.654-.986.681-2.049 1.217-2.269-4.779 2.37-10.422-4.259-13.766-1.067-1.642-.718-2.653-.77-4.863"/><path fill="#5115a7" d="M516.32 425.389c4.946.208 10.106.553 14.976 1.496 2.8 2.975 5.891 2.72 6.862 6.05-6.332-1.73-13.176-3.192-19.581-4.746-1.361-.331-1.775-1.726-2.257-2.8"/><path fill="#6523c1" d="M606.641 520.25c3.435.592 16.409 1.362 17.858 2.517-.466 2.471-.535 3.717-.639 6.242-.286-1.062-.207-.797-.745-1.769-1.098-.128-1.932-.287-2.986-.621-2.927-2.596-7.618-1.546-11.051-2.805-1.699-.624-1.702-1.733-2.437-3.564"/><path fill="#5115a7" d="M538.657 433.064c4.236-3.999 5.27 1.827 8.782-.082 1.927 1.422 5.814 4.365 6.441 6.496-1.143 1.155-1.55 2.042-2.412 3.432l.017-.017-.88-.721c-1.206-4.241-1.479-4.017-5.51-5.522-2.186-.816-4.472-2.298-6.438-3.586"/><path fill="#ae93d7" d="M536.226 625.719c4.309-1.067 12.829-4.103 17.364-5.549-2.303 5.183-5.885 1.7-7.604 7.913l-2.023.654c-2.779-5.042-2.303-.77-7.737-3.018"/><path fill="#ae93d7" d="M479.81 623.561c4.762 1.294 8.575 2.265 13.459 3.218-3.433 1.865-5.169 1.472-8.422 2.754l-3.258-.703c-.969-2.142-1.2-2.977-1.779-5.269"/><path fill="#5115a7" d="M620.129 526.619c1.054.334 1.888.493 2.986.621.538.972.459.707.745 1.769-.616 3.16-1.064 5.601-2.687 8.474-1.972-2.742-1.208-7.324-1.044-10.864"/><path fill="#5115a7" d="m601.053 509.764 3.964 1.365c.057 2.638.009 4.383.533 6.994-1.472-.016-1.971.125-3.265-.544-1.374-2.085-1.122-5.169-1.232-7.815"/><path fill="#e3d5f5" d="M508.715 503.631c4.732-.829 6.316-.902 11.216.117 1.167 1.075 3.087 2.736 4.053 3.908 1.068 1.83 1.793 4.171 3.88 4.549 17.184-1.101 35.66-.106 52.948-.52 4.106-.099 7.594 2.427 5.2 6.895l.725 1.691c-3.172 4.893-24.094 2.382-29.401 1.358l2.346.009.572-.601c-7.889-.152-27.215.799-33.826-.18-3.214 9.036-6.738 9.839-15.858 9.584-8.672-4.951-9.188-8.313-9.088-17.57 1.227-4.535 2.892-6.217 6.857-8.713z"/><path fill="#c5a0f0" d="M501.482 512.871c2.581-.282 3.034.056 4.635-2.027l.741 2.163c-1.264 9.621 4.505 13.824 13.675 11.642 3.345-2.975 1.382-5.685 5.895-3.792-3.214 9.036-6.738 9.839-15.858 9.584-8.672-4.951-9.188-8.313-9.088-17.57"/><path fill="#c7adee" d="M508.715 503.631c4.732-.829 6.316-.902 11.216.117 1.167 1.075 3.087 2.736 4.053 3.908-1.706-.08-3.471-.287-5.104.132l-1.174.104c-5.109.012-8.432-.069-10.848 5.115l-.741-2.163c-1.601 2.083-2.054 1.745-4.635 2.027 1.227-4.535 2.892-6.217 6.857-8.713z"/><path fill="#ae93d7" d="M508.715 503.631c4.732-.829 6.316-.902 11.216.117 1.167 1.075 3.087 2.736 4.053 3.908-1.706-.08-3.471-.287-5.104.132l-1.174.104c-.611-.518-1.231-1.661-1.701-2.398-2.322-1.376-4.594-1.322-7.29-1.863"/><path fill="#ae93d7" d="M501.482 512.871c1.227-4.535 2.892-6.217 6.857-8.713-.507 2.765-1.162 4.135-2.222 6.686-1.601 2.083-2.054 1.745-4.635 2.027"/><path fill="#261a3d" d="M560.254 521.037c7.027-.842 21.796.664 25.758-2.457l.725 1.691c-3.172 4.893-24.094 2.382-29.401 1.358l2.346.009z"/><path fill="#c7adee" d="M523.984 507.656c1.068 1.83 1.793 4.171 3.88 4.549-5.039 2.241-7.131-.405-8.984-4.417 1.633-.419 3.398-.212 5.104-.132"/><path fill="#6523c1" d="M679.041 507.329c.059 6.145-2.586 8.097-6.765 12.517-.632 2.022-.287 2.172-2.171 3.359-1.572.99-4.858 1.423-6.611.904 1.52-1.167.922-.419 1.528-2.548 1.762-.503 2.93-1.285 4.516-2.186l-.021-.24.776-.217c.839-1.465.472-4.322.955-6.497l.884-.264c3.372-1.039 5.241-1.732 6.909-4.828"/></svg>